<svg xmlns="http://www.w3.org/2000/svg" width="500" height="500" viewBox="0 0 500 500" version="1.1">
	<path d="M 0 250.002 L 0 500.004 250.250 499.752 L 500.500 499.500 500.752 249.750 L 501.004 0 250.502 0 L 0 0 0 250.002 M 0.492 250.500 C 0.492 388, 0.608 444.101, 0.750 375.170 C 0.892 306.238, 0.892 193.738, 0.750 125.170 C 0.608 56.601, 0.492 113, 0.492 250.500 M 28.227 177.250 C 28.555 230.073, 28.621 231.652, 30.737 237.275 C 34.608 247.566, 39.096 254.776, 45.398 260.827 C 56.274 271.270, 68.619 276, 85 276 C 99.578 276, 108.760 273.060, 119.707 264.887 C 122.571 262.749, 125.158 261, 125.457 261 C 125.756 261, 126 263.925, 126 267.500 L 126 274 137 274 L 148 274 148 198.500 L 148 123 136.542 123 L 125.083 123 124.792 175.750 L 124.500 228.500 121.276 235.089 C 117.548 242.707, 110.256 250.069, 103.217 253.321 C 99.318 255.122, 96.678 255.500, 88 255.500 C 78.612 255.500, 76.917 255.213, 71.993 252.795 C 64.517 249.124, 58.338 242.799, 54.608 235 L 51.500 228.500 51.216 175.750 L 50.933 123 39.411 123 L 27.890 123 28.227 177.250 M 165 198.500 L 165 274 175.954 274 L 186.909 274 187.204 267.522 L 187.500 261.045 192.500 265.017 C 195.250 267.202, 200.875 270.414, 205 272.156 C 211.378 274.849, 214.073 275.391, 223.019 275.780 C 236.023 276.346, 242.724 275.034, 252.794 269.949 C 262.642 264.977, 268.758 259.654, 274.310 251.222 C 282.061 239.451, 283.439 234.573, 283.412 219 C 283.392 207.571, 283.049 204.586, 281.177 199.543 C 276.673 187.412, 266.901 175.542, 256.302 169.331 C 247.310 164.062, 238.367 161.712, 227 161.634 C 212.918 161.536, 203.715 164.585, 192.250 173.145 L 187 177.065 187 150.032 L 187 123 176 123 L 165 123 165 198.500 M 333.233 164.098 C 315.141 169.829, 301.099 184.470, 295.392 203.552 C 292.802 212.214, 292.966 226.511, 295.760 235.500 C 300.372 250.339, 310.134 262.144, 323.676 269.260 C 332.557 273.927, 341.182 275.970, 352 275.970 C 362.804 275.970, 371.442 273.928, 380.280 269.284 C 387.137 265.680, 399 255.554, 399 253.304 C 399 252.188, 385.750 242, 384.300 242 C 383.898 242, 381.528 243.996, 379.034 246.435 C 376.540 248.875, 372.025 252.137, 369 253.685 C 363.954 256.268, 362.592 256.500, 352.500 256.500 C 342.404 256.500, 341.048 256.268, 336 253.683 C 326.452 248.791, 319.458 240.496, 316.447 230.490 L 315.096 226 360.048 226 L 405 226 405 217.710 C 405 201.461, 399.769 188.533, 388.749 177.544 C 381.188 170.005, 372.817 165.117, 363.972 163.079 C 356.354 161.324, 340.311 161.856, 333.233 164.098 M 454.700 164.614 C 451.534 165.587, 448.151 167.776, 444.760 171.045 C 441.932 173.770, 439.479 176, 439.309 176 C 439.139 176, 439 173.300, 439 170 L 439 164 428.500 164 L 418 164 418 219 L 418 274 428.500 274 L 439 274 439.008 243.250 C 439.012 226.338, 439.480 209.633, 440.049 206.129 C 442.533 190.820, 451.519 183, 466.626 183 L 473 183 473 173 L 473 163 466.250 163.070 C 462.538 163.108, 457.340 163.803, 454.700 164.614 M 341 181.605 C 329.359 184.722, 319.339 194.834, 316.438 206.390 L 315.783 209 349.392 209 C 387.587 209, 384.953 209.737, 380.553 200.287 C 377.745 194.255, 370.885 186.995, 365.345 184.192 C 361.311 182.151, 352.448 179.954, 348.701 180.066 C 347.490 180.102, 344.025 180.794, 341 181.605 M 210.593 183.419 C 200.113 187.829, 192.924 195.253, 189 205.718 C 187.228 210.444, 186.893 213.149, 187.166 220.526 C 187.454 228.302, 187.950 230.467, 190.750 236.149 C 194.603 243.970, 200.884 250.117, 208.825 253.840 C 213.784 256.164, 215.761 256.500, 224.500 256.500 C 233.425 256.500, 235.175 256.188, 240.782 253.599 C 248.841 249.878, 256.933 241.364, 260.092 233.285 C 261.809 228.891, 262.353 225.456, 262.353 219 C 262.353 207.838, 259.741 200.995, 252.493 193.166 C 244.626 184.668, 238.024 181.705, 226 181.274 C 217.671 180.975, 215.772 181.240, 210.593 183.419 M 175.167 328.750 C 175.481 364.370, 175.613 366.692, 177.500 369.895 C 178.600 371.763, 180.686 374.175, 182.136 375.255 C 185.124 377.482, 192.180 378.564, 197.369 377.590 C 200.739 376.958, 200.846 376.802, 200.367 373.217 C 199.324 365.410, 199.115 365, 196.181 365 C 194.651 365, 192.860 364.460, 192.200 363.800 C 191.311 362.911, 191 353.311, 191 326.800 L 191 291 182.917 291 L 174.834 291 175.167 328.750 M 122.045 295.027 C 115.193 296.470, 107.565 300.633, 103.475 305.160 C 95.351 314.151, 91.603 329.207, 93.775 344.114 C 96.851 365.214, 109.003 376.804, 129.098 377.803 C 143.722 378.530, 154.191 373.863, 160.142 363.965 C 164.846 356.142, 164.778 355.592, 158.666 352.095 C 155.691 350.393, 152.755 349, 152.142 349 C 151.529 349, 150.324 350.681, 149.466 352.736 C 146.097 360.798, 139.218 364.545, 129.128 363.816 C 121.635 363.274, 117.012 360.269, 113.364 353.569 C 109.772 346.973, 108.854 332.453, 111.463 323.480 C 116.717 305.407, 140.519 302.279, 149.576 318.471 C 150.618 320.334, 150.790 320.312, 155.076 317.773 C 163.077 313.032, 163.413 312.652, 162.010 309.921 C 159.481 304.997, 152.593 298.991, 147.130 296.947 C 140.867 294.604, 128.537 293.660, 122.045 295.027 M 229.213 315.493 C 220.047 318.068, 214.912 322.572, 210.734 331.703 C 207.638 338.468, 207.571 354.399, 210.611 361 C 215.450 371.507, 223.613 376.992, 235.579 377.777 C 251.290 378.807, 263.386 371.075, 267.150 357.595 C 268.876 351.411, 268.612 339.286, 266.620 333.329 C 261.822 318.974, 245.138 311.019, 229.213 315.493 M 309.819 315.580 C 306.609 316.568, 304.036 318.308, 301.629 321.121 L 298.119 325.221 297.809 320.361 L 297.500 315.500 290.250 315.206 L 283 314.912 283 345.956 L 283 377 290.500 377 L 298 377 298.044 360.250 C 298.108 335.507, 299.548 330.834, 307.943 328.123 C 311.358 327.020, 312.998 326.982, 316.181 327.936 C 322.419 329.805, 323 332.238, 323 356.468 L 323 377 330.500 377 L 338 377 338 353.866 C 338 338.640, 337.586 329.349, 336.788 326.688 C 333.723 316.457, 322.282 311.744, 309.819 315.580 M 372.803 315.336 C 358.341 319.425, 351.117 331.389, 352.243 349.386 C 352.873 359.449, 355.566 365.567, 361.766 371.025 C 367.053 375.679, 373.866 378, 382.239 378 C 392.054 378, 396.749 376.285, 402.694 370.526 C 405.612 367.699, 407.992 364.962, 407.982 364.443 C 407.966 363.589, 398.710 357, 397.525 357 C 397.251 357, 395.511 358.654, 393.658 360.676 C 390.636 363.974, 389.684 364.391, 384.395 364.737 C 379.951 365.027, 377.658 364.657, 375.077 363.234 C 371.398 361.204, 368 355.938, 368 352.266 L 368 350 387.465 350 C 410.193 350, 409.727 350.227, 408.627 339.705 C 407.337 327.362, 403.641 320.941, 395.579 317.038 C 389.992 314.334, 379.201 313.527, 372.803 315.336 M 378 326.652 C 373.781 328.042, 371.839 329.701, 370.010 333.479 C 368.904 335.763, 368 338.164, 368 338.816 C 368 339.667, 371.651 340, 381 340 C 395.489 340, 395.244 340.148, 392.422 333.097 C 390.230 327.619, 383.794 324.743, 378 326.652 M 233.419 328.075 C 227.538 329.783, 224.117 336.327, 224.049 346 C 223.966 358.048, 228.193 364.054, 237.228 364.722 C 247.489 365.480, 252.346 359.482, 252.387 346 C 252.416 336.219, 250.248 331.471, 244.576 328.895 C 240.119 326.871, 238.082 326.721, 233.419 328.075" stroke="none" fill="black" fill-rule="evenodd"/>
</svg>